<?xml version="1.0" standalone="no"?>
<!DOCTYPE svg PUBLIC "-//W3C//DTD SVG 20010904//EN"
 "http://www.w3.org/TR/2001/REC-SVG-20010904/DTD/svg10.dtd">
<svg version="1.0" xmlns="http://www.w3.org/2000/svg"
 width="487.687881pt" height="348.836595pt" viewBox="0 0 487.687881 348.836595"
 preserveAspectRatio="xMidYMid meet">
<metadata>
Created by potrace 1.12, written by Peter Selinger 2001-2015
</metadata>
<g transform="translate(-10.034727,400.043885) scale(0.100000,-0.100000)"
fill="#000000" stroke="none">
<path d="M4730 3977 c-127 -43 -220 -116 -331 -259 -186 -242 -350 -631 -584
-1388 -276 -894 -454 -1294 -668 -1497 -87 -82 -161 -122 -251 -133 -182 -22
-272 70 -298 306 -31 286 70 696 462 1880 88 264 160 491 160 503 0 31 -52 81
-84 81 -45 0 -75 -21 -90 -64 -8 -23 -42 -126 -76 -231 -126 -387 -378 -1077
-527 -1445 -117 -290 -278 -589 -414 -769 -75 -100 -192 -211 -254 -241 -155
-74 -343 -1 -390 151 -29 91 -31 237 -6 367 78 407 403 1498 590 1978 l31 81
102 33 c187 61 347 153 436 249 39 43 63 107 63 167 0 173 -198 270 -375 184
-108 -52 -228 -198 -317 -384 l-49 -104 -83 -11 c-665 -95 -952 -159 -1196
-266 -318 -138 -481 -354 -481 -635 0 -281 159 -498 407 -556 116 -27 193 5
193 79 0 57 -26 79 -106 88 -206 25 -325 186 -312 420 10 181 119 318 336 428
187 94 430 153 1017 245 83 13 151 23 153 21 1 -1 -20 -62 -47 -136 -212 -581
-497 -1574 -552 -1922 -14 -91 -7 -266 14 -342 58 -211 194 -325 407 -342 253
-19 495 188 758 650 l50 87 4 -172 c4 -143 9 -185 28 -243 75 -237 249 -351
480 -316 247 39 449 236 640 626 98 199 183 421 305 795 342 1049 377 1146
504 1405 151 307 308 462 486 481 75 8 89 16 105 53 15 36 7 74 -20 101 -28
28 -133 27 -220 -3z m-2340 -195 c73 -59 -50 -188 -239 -253 -30 -11 -56 -17
-59 -15 -10 10 74 144 122 195 46 48 111 90 142 91 7 0 22 -8 34 -18z"/>
</g>
</svg>
